<svg height="24" viewBox="0 0 24 24" width="24" xmlns="http://www.w3.org/2000/svg"><path d="m10.0172337 20.0036431c.0051953.1228406-.0080613.2427148-.03392909.3640475-.04545508.2132067-.13323559.4388164-.25749086.6472655-.35322412.5925644-.95326993.9879733-1.72581375.9879733-1.81990159 0-2.53416433-.8928284-3.42847669-3.1286093-.60568764-1.5142191-.8914249-1.8713907-1.57152331-1.8713907v-2c1.81990159 0 2.53416433.8928285 3.42847669 3.1286094.60568764 1.5142191.8914249 1.8713906 1.57152331 1.8713906 0-.290165-.00397373-.5471931-.01233664-.8952694-.01960012-.8157855-.02185415-.9823306.01373658-1.2004272.01422227-.4760867.13713511-.8138949.38359663-1.1491778-2.23180494-.4858325-3.73707646-1.4892043-4.6010229-3.1166419l-.32363675-.7611015c-.31529169-.9061071-.46033692-1.9327802-.46033692-3.11848371 0-1.36555739.41634612-2.58653343 1.19401809-3.60715847-.24259137-.97014441-.20936774-2.15544803.32629063-3.49406729l.17503114-.43740577.44872817-.14353654c.06007898-.01921771.13311624-.03657466.21892136-.05004187.87377301-.1371397 2.11711538.19006143 3.74255734 1.23122553.95822007-.22212392 1.96729967-.33426971 2.98322377-.33426971.907862 0 1.810686.09152454 2.6728615.27196564 1.5814273-.99033329 2.790607-1.30094076 3.6408697-1.16874565.0848175.01318705.1571079.03021165.2166906.04910629l.4515224.14318526.1752436.44007293c.4685952 1.17673982.5490195 2.26120549.3785112 3.21013155.8939979 1.0727141 1.3755305 2.39149088 1.3755305 3.8895381 0 1.26293791-.0904792 2.21259571-.35057 3.13647091l-.274527.753361c-.7186202 1.6257114-2.30344 2.6403336-4.747371 3.123589.254023.3517197.372468.7087676.372468 1.2276806v1c0 .4846034 0 .4995259-.0011029 1.0000038.0022706.0359351.0052703.0535349.0085438.0645011-.0005358.0001864-.0030161.6453515-.0074409 1.9354951-.8517938 0-1.4851313-.415403-1.7966247-1.0706733-.1614992-.3397365-.2097487-.6641365-.2033753-.9435279v-1.9857988c0-.0838466-.0029097-.0886961-.2071068-.2928932-.5458029-.5458029-.7928932-.95762-.7928932-1.7071068v-.9046024l.9000749-.0903925c2.679269-.2690731 4.1364626-1.0131255 4.619603-2.1000959l.2257842-.6172379c.1796549-.6453806.2545379-1.4313434.2545379-2.52877281 0-1.16609019-.4070954-2.12936019-1.1770076-2.8989696l-.4231834-.42301693.1727179-.57288394c.1534406-.50894346.1899062-1.11116882.027581-1.79806096-.0269814.00683509-.0550171.01428363-.0841192.0223857-.5354445.14906878-1.2039572.46893263-2.0095416 1.00740943l-.3674281.24559995-.4289623-.10636741c-.8296687-.20572833-1.7212051-.31135036-2.6212862-.31135036-1.0009079 0-1.9903068.12734742-2.90431133.37652334l-.4460541.12160328-.38158687-.26104229c-.83319245-.56998415-1.52536641-.90894979-2.08039412-1.06729286-.03963959-.01130872-.07738351-.02142447-.11325981-.03044261-.19364257.79498397-.11705301 1.4481332.07906585 1.93823752l.23515293.58765113-.43049806.46400665c-.68598768.73938278-1.04688499 1.63914912-1.04688499 2.70600996 0 .97675951.11434439 1.78612301.32388252 2.39579751l.26168447.6194334c.6541717 1.2275235 2.04363733 1.9660172 4.52101221 2.2315664l.8934208.0957656v.8985386c0 .7494868-.2470903 1.1613039-.7928932 1.7071068-.2041971.2041971-.2071068.2090466-.2071068.2928932l-.01723655.1848675c-.01140546.060632-.01140546.2171871.00432291.8718248.00723388.3010848.01135635.5393899.01254841.7884134.01194803.0515504.01375423.0848088.01759893.155608z" fill-rule="evenodd"/></svg>